<?xml version="1.0" encoding="UTF-8"?>
<svg width="200" height="200" viewBox="0 0 200 200" version="1.1" xmlns="http://www.w3.org/2000/svg">
    <g fill="#194431">
        <path d="M100,40 C66.8629,40 40,66.8629 40,100 C40,133.137 66.8629,160 100,160 C133.137,160 160,133.137 160,100 C160,66.8629 133.137,40 100,40 Z M100,20 C144.183,20 180,55.8172 180,100 C180,144.183 144.183,180 100,180 C55.8172,180 20,144.183 20,100 C20,55.8172 55.8172,20 100,20 Z" />
        <path d="M100,60 C77.9086,60 60,77.9086 60,100 C60,122.091 77.9086,140 100,140 C122.091,140 140,122.091 140,100 C140,77.9086 122.091,60 100,60 Z M100,40 C133.137,40 160,66.8629 160,100 C160,133.137 133.137,160 100,160 C66.8629,160 40,133.137 40,100 C40,66.8629 66.8629,40 100,40 Z" />
    </g>
</svg> 